<svg width="19" height="20" viewBox="0 0 19 20" fill="none" xmlns="http://www.w3.org/2000/svg">
<path d="M18.2268 16.3637L15.1152 1.56992C15.075 1.37646 14.9969 1.19285 14.8855 1.02965C14.7741 0.866457 14.6315 0.726881 14.466 0.618945C14.3005 0.511009 14.1153 0.436841 13.921 0.400701C13.7267 0.364561 13.5272 0.367162 13.334 0.408353L8.94552 1.35148C8.55735 1.43647 8.21843 1.67129 8.00249 2.00486C7.78655 2.33843 7.71104 2.74378 7.79239 3.13273L10.904 17.9265C10.9733 18.264 11.1567 18.5674 11.4234 18.7855C11.6901 19.0037 12.0238 19.1235 12.3683 19.1246C12.4748 19.1245 12.5811 19.1131 12.6852 19.0909L17.0736 18.1477C17.4623 18.0625 17.8015 17.8272 18.0175 17.4931C18.2335 17.159 18.3087 16.753 18.2268 16.3637ZM9.25958 2.82617C9.25958 2.82054 9.25958 2.81773 9.25958 2.81773L13.6471 1.88023L13.9593 3.36804L9.57177 4.3121L9.25958 2.82617ZM9.88021 5.77648L14.2696 4.83429L14.5827 6.32492L10.1971 7.26804L9.88021 5.77648ZM10.5027 8.73617L14.8921 7.79304L16.139 13.7218L11.7496 14.6649L10.5027 8.73617ZM16.7596 16.6815L12.3721 17.619L12.0599 16.1312L16.4474 15.1871L16.7596 16.673C16.7596 16.6787 16.7596 16.6815 16.7596 16.6815ZM6.25958 1.1246H1.75958C1.36176 1.1246 0.980227 1.28264 0.698922 1.56394C0.417618 1.84525 0.259583 2.22678 0.259583 2.6246V17.6246C0.259583 18.0224 0.417618 18.404 0.698922 18.6853C0.980227 18.9666 1.36176 19.1246 1.75958 19.1246H6.25958C6.65741 19.1246 7.03894 18.9666 7.32024 18.6853C7.60155 18.404 7.75958 18.0224 7.75958 17.6246V2.6246C7.75958 2.22678 7.60155 1.84525 7.32024 1.56394C7.03894 1.28264 6.65741 1.1246 6.25958 1.1246ZM1.75958 2.6246H6.25958V4.1246H1.75958V2.6246ZM1.75958 5.6246H6.25958V14.6246H1.75958V5.6246ZM6.25958 17.6246H1.75958V16.1246H6.25958V17.6246Z" fill="black"/>
</svg>
