<svg width="199" height="198" viewBox="0 0 199 198" fill="none" xmlns="http://www.w3.org/2000/svg">
<g clip-path="url(#clip0_609_404)">
<path d="M198.5 0H0.5V198H198.5V0Z" fill="white"/>
<path d="M19.805 12.375H12.875V19.305H19.805V12.375Z" fill="black"/>
<path d="M26.735 12.375H19.805V19.305H26.735V12.375Z" fill="black"/>
<path d="M33.665 12.375H26.735V19.305H33.665V12.375Z" fill="black"/>
<path d="M40.595 12.375H33.665V19.305H40.595V12.375Z" fill="black"/>
<path d="M47.525 12.375H40.595V19.305H47.525V12.375Z" fill="black"/>
<path d="M54.455 12.375H47.525V19.305H54.455V12.375Z" fill="black"/>
<path d="M61.385 12.375H54.455V19.305H61.385V12.375Z" fill="black"/>
<path d="M75.245 12.375H68.315V19.305H75.245V12.375Z" fill="black"/>
<path d="M82.175 12.375H75.245V19.305H82.175V12.375Z" fill="black"/>
<path d="M102.965 12.375H96.035V19.305H102.965V12.375Z" fill="black"/>
<path d="M109.895 12.375H102.965V19.305H109.895V12.375Z" fill="black"/>
<path d="M116.825 12.375H109.895V19.305H116.825V12.375Z" fill="black"/>
<path d="M123.755 12.375H116.825V19.305H123.755V12.375Z" fill="black"/>
<path d="M130.685 12.375H123.755V19.305H130.685V12.375Z" fill="black"/>
<path d="M144.545 12.375H137.615V19.305H144.545V12.375Z" fill="black"/>
<path d="M151.475 12.375H144.545V19.305H151.475V12.375Z" fill="black"/>
<path d="M158.405 12.375H151.475V19.305H158.405V12.375Z" fill="black"/>
<path d="M165.335 12.375H158.405V19.305H165.335V12.375Z" fill="black"/>
<path d="M172.265 12.375H165.335V19.305H172.265V12.375Z" fill="black"/>
<path d="M179.195 12.375H172.265V19.305H179.195V12.375Z" fill="black"/>
<path d="M186.125 12.375H179.195V19.305H186.125V12.375Z" fill="black"/>
<path d="M19.805 19.305H12.875V26.235H19.805V19.305Z" fill="black"/>
<path d="M61.385 19.305H54.455L54.455 26.235H61.385V19.305Z" fill="black"/>
<path d="M82.175 19.305H75.245V26.235H82.175V19.305Z" fill="black"/>
<path d="M96.035 19.305H89.105V26.235H96.035V19.305Z" fill="black"/>
<path d="M109.895 19.305H102.965V26.235H109.895V19.305Z" fill="black"/>
<path d="M144.545 19.305H137.615V26.235H144.545V19.305Z" fill="black"/>
<path d="M186.125 19.305H179.195V26.235H186.125V19.305Z" fill="black"/>
<path d="M19.805 26.235H12.875V33.165H19.805V26.235Z" fill="black"/>
<path d="M33.665 26.235H26.735V33.165H33.665V26.235Z" fill="black"/>
<path d="M40.595 26.235H33.665V33.165H40.595V26.235Z" fill="black"/>
<path d="M47.525 26.235H40.595V33.165H47.525V26.235Z" fill="black"/>
<path d="M61.385 26.235H54.455V33.165H61.385V26.235Z" fill="black"/>
<path d="M75.245 26.235H68.315V33.165H75.245V26.235Z" fill="black"/>
<path d="M89.105 26.235H82.175V33.165H89.105V26.235Z" fill="black"/>
<path d="M102.965 26.235H96.035V33.165H102.965V26.235Z" fill="black"/>
<path d="M130.685 26.235H123.755V33.165H130.685V26.235Z" fill="black"/>
<path d="M144.545 26.235H137.615V33.165H144.545V26.235Z" fill="black"/>
<path d="M158.405 26.235H151.475V33.165H158.405V26.235Z" fill="black"/>
<path d="M165.335 26.235H158.405V33.165H165.335V26.235Z" fill="black"/>
<path d="M172.265 26.235H165.335V33.165H172.265V26.235Z" fill="black"/>
<path d="M186.125 26.235H179.195V33.165H186.125V26.235Z" fill="black"/>
<path d="M19.805 33.165H12.875V40.095H19.805V33.165Z" fill="black"/>
<path d="M33.665 33.165H26.735V40.095H33.665V33.165Z" fill="black"/>
<path d="M40.595 33.165H33.665V40.095H40.595V33.165Z" fill="black"/>
<path d="M47.525 33.165H40.595V40.095H47.525V33.165Z" fill="black"/>
<path d="M61.385 33.165H54.455V40.095H61.385V33.165Z" fill="black"/>
<path d="M75.245 33.165H68.315V40.095H75.245V33.165Z" fill="black"/>
<path d="M96.035 33.165H89.105V40.095H96.035V33.165Z" fill="black"/>
<path d="M102.965 33.165H96.035V40.095H102.965V33.165Z" fill="black"/>
<path d="M109.895 33.165H102.965V40.095H109.895V33.165Z" fill="black"/>
<path d="M116.825 33.165H109.895V40.095H116.825V33.165Z" fill="black"/>
<path d="M123.755 33.165H116.825V40.095H123.755V33.165Z" fill="black"/>
<path d="M130.685 33.165H123.755V40.095H130.685V33.165Z" fill="black"/>
<path d="M144.545 33.165H137.615V40.095H144.545V33.165Z" fill="black"/>
<path d="M158.405 33.165H151.475V40.095H158.405V33.165Z" fill="black"/>
<path d="M165.335 33.165H158.405V40.095H165.335V33.165Z" fill="black"/>
<path d="M172.265 33.165H165.335V40.095H172.265V33.165Z" fill="black"/>
<path d="M186.125 33.165H179.195V40.095H186.125V33.165Z" fill="black"/>
<path d="M19.805 40.095H12.875V47.025H19.805V40.095Z" fill="black"/>
<path d="M33.665 40.095H26.735V47.025H33.665V40.095Z" fill="black"/>
<path d="M40.595 40.095H33.665V47.025H40.595V40.095Z" fill="black"/>
<path d="M47.525 40.095H40.595V47.025H47.525V40.095Z" fill="black"/>
<path d="M61.385 40.095H54.455V47.025H61.385V40.095Z" fill="black"/>
<path d="M75.245 40.095H68.315V47.025H75.245V40.095Z" fill="black"/>
<path d="M82.175 40.095H75.245V47.025H82.175V40.095Z" fill="black"/>
<path d="M102.965 40.095H96.035V47.025H102.965V40.095Z" fill="black"/>
<path d="M109.895 40.095H102.965V47.025H109.895V40.095Z" fill="black"/>
<path d="M123.755 40.095H116.825L116.825 47.025H123.755V40.095Z" fill="black"/>
<path d="M130.685 40.095H123.755V47.025H130.685V40.095Z" fill="black"/>
<path d="M144.545 40.095H137.615V47.025H144.545V40.095Z" fill="black"/>
<path d="M158.405 40.095H151.475V47.025H158.405V40.095Z" fill="black"/>
<path d="M165.335 40.095H158.405V47.025H165.335V40.095Z" fill="black"/>
<path d="M172.265 40.095H165.335V47.025H172.265V40.095Z" fill="black"/>
<path d="M186.125 40.095H179.195V47.025H186.125V40.095Z" fill="black"/>
<path d="M19.805 47.025H12.875V53.955H19.805V47.025Z" fill="black"/>
<path d="M61.385 47.025H54.455V53.955H61.385V47.025Z" fill="black"/>
<path d="M75.245 47.025H68.315V53.955H75.245V47.025Z" fill="black"/>
<path d="M82.175 47.025H75.245V53.955H82.175V47.025Z" fill="black"/>
<path d="M102.965 47.025H96.035V53.955H102.965V47.025Z" fill="black"/>
<path d="M109.895 47.025H102.965V53.955H109.895V47.025Z" fill="black"/>
<path d="M116.825 47.025H109.895V53.955H116.825L116.825 47.025Z" fill="black"/>
<path d="M123.755 47.025H116.825L116.825 53.955H123.755V47.025Z" fill="black"/>
<path d="M130.685 47.025H123.755V53.955H130.685V47.025Z" fill="black"/>
<path d="M144.545 47.025H137.615V53.955H144.545V47.025Z" fill="black"/>
<path d="M186.125 47.025H179.195V53.955H186.125V47.025Z" fill="black"/>
<path d="M19.805 53.955H12.875V60.885H19.805V53.955Z" fill="black"/>
<path d="M26.735 53.955L19.805 53.955V60.885H26.735V53.955Z" fill="black"/>
<path d="M33.665 53.955H26.735V60.885H33.665V53.955Z" fill="black"/>
<path d="M40.595 53.955H33.665V60.885H40.595V53.955Z" fill="black"/>
<path d="M47.525 53.955H40.595V60.885H47.525V53.955Z" fill="black"/>
<path d="M54.455 53.955L47.525 53.955V60.885H54.455L54.455 53.955Z" fill="black"/>
<path d="M61.385 53.955H54.455L54.455 60.885H61.385V53.955Z" fill="black"/>
<path d="M75.245 53.955H68.315V60.885H75.245V53.955Z" fill="black"/>
<path d="M89.105 53.955L82.175 53.955V60.885H89.105V53.955Z" fill="black"/>
<path d="M102.965 53.955H96.035V60.885H102.965V53.955Z" fill="black"/>
<path d="M116.825 53.955H109.895V60.885H116.825V53.955Z" fill="black"/>
<path d="M130.685 53.955H123.755V60.885H130.685V53.955Z" fill="black"/>
<path d="M144.545 53.955H137.615V60.885H144.545V53.955Z" fill="black"/>
<path d="M151.475 53.955L144.545 53.955V60.885H151.475V53.955Z" fill="black"/>
<path d="M158.405 53.955H151.475V60.885H158.405V53.955Z" fill="black"/>
<path d="M165.335 53.955H158.405V60.885H165.335V53.955Z" fill="black"/>
<path d="M172.265 53.955H165.335V60.885H172.265V53.955Z" fill="black"/>
<path d="M179.195 53.955L172.265 53.955V60.885H179.195V53.955Z" fill="black"/>
<path d="M186.125 53.955H179.195V60.885H186.125V53.955Z" fill="black"/>
<path d="M89.105 60.885H82.175V67.815H89.105V60.885Z" fill="black"/>
<path d="M109.895 60.885H102.965V67.815H109.895V60.885Z" fill="black"/>
<path d="M33.665 67.815H26.735V74.745H33.665V67.815Z" fill="black"/>
<path d="M40.595 67.815H33.665V74.745H40.595V67.815Z" fill="black"/>
<path d="M47.525 67.815H40.595V74.745H47.525V67.815Z" fill="black"/>
<path d="M54.455 67.815H47.525V74.745H54.455V67.815Z" fill="black"/>
<path d="M61.385 67.815H54.455V74.745H61.385V67.815Z" fill="black"/>
<path d="M68.315 67.815H61.385V74.745H68.315V67.815Z" fill="black"/>
<path d="M82.175 67.815H75.245V74.745H82.175V67.815Z" fill="black"/>
<path d="M89.105 67.815H82.175V74.745H89.105V67.815Z" fill="black"/>
<path d="M109.895 67.815H102.965V74.745H109.895V67.815Z" fill="black"/>
<path d="M116.825 67.815H109.895V74.745H116.825V67.815Z" fill="black"/>
<path d="M123.755 67.815H116.825V74.745H123.755V67.815Z" fill="black"/>
<path d="M137.615 67.815H130.685V74.745H137.615V67.815Z" fill="black"/>
<path d="M151.475 67.815H144.545V74.745H151.475V67.815Z" fill="black"/>
<path d="M158.405 67.815H151.475V74.745H158.405V67.815Z" fill="black"/>
<path d="M165.335 67.815H158.405V74.745H165.335V67.815Z" fill="black"/>
<path d="M172.265 67.815H165.335V74.745H172.265V67.815Z" fill="black"/>
<path d="M186.125 67.815H179.195V74.745H186.125V67.815Z" fill="black"/>
<path d="M26.735 74.745H19.805V81.675H26.735V74.745Z" fill="black"/>
<path d="M68.315 74.745H61.385V81.675H68.315V74.745Z" fill="black"/>
<path d="M82.175 74.745H75.245V81.675H82.175V74.745Z" fill="black"/>
<path d="M102.965 74.745H96.035V81.675H102.965V74.745Z" fill="black"/>
<path d="M109.895 74.745H102.965V81.675H109.895V74.745Z" fill="black"/>
<path d="M130.685 74.745H123.755V81.675H130.685V74.745Z" fill="black"/>
<path d="M144.545 74.745H137.615V81.675H144.545V74.745Z" fill="black"/>
<path d="M151.475 74.745H144.545V81.675H151.475V74.745Z" fill="black"/>
<path d="M158.405 74.745H151.475V81.675H158.405V74.745Z" fill="black"/>
<path d="M165.335 74.745H158.405V81.675H165.335V74.745Z" fill="black"/>
<path d="M172.265 74.745H165.335V81.675H172.265V74.745Z" fill="black"/>
<path d="M186.125 74.745H179.195V81.675H186.125V74.745Z" fill="black"/>
<path d="M33.665 81.675H26.735V88.605H33.665V81.675Z" fill="black"/>
<path d="M40.595 81.675H33.665V88.605H40.595V81.675Z" fill="black"/>
<path d="M47.525 81.675H40.595V88.605H47.525V81.675Z" fill="black"/>
<path d="M54.455 81.675H47.525V88.605H54.455V81.675Z" fill="black"/>
<path d="M61.385 81.675H54.455V88.605H61.385V81.675Z" fill="black"/>
<path d="M75.245 81.675H68.315V88.605H75.245V81.675Z" fill="black"/>
<path d="M96.035 81.675H89.105V88.605H96.035V81.675Z" fill="black"/>
<path d="M102.965 81.675H96.035V88.605H102.965V81.675Z" fill="black"/>
<path d="M109.895 81.675H102.965V88.605H109.895V81.675Z" fill="black"/>
<path d="M130.685 81.675H123.755V88.605H130.685V81.675Z" fill="black"/>
<path d="M137.615 81.675H130.685V88.605H137.615V81.675Z" fill="black"/>
<path d="M165.335 81.675H158.405V88.605H165.335V81.675Z" fill="black"/>
<path d="M172.265 81.675H165.335V88.605H172.265V81.675Z" fill="black"/>
<path d="M179.195 81.675H172.265V88.605H179.195V81.675Z" fill="black"/>
<path d="M19.805 88.605H12.875V95.535H19.805V88.605Z" fill="black"/>
<path d="M26.735 88.605H19.805V95.535H26.735V88.605Z" fill="black"/>
<path d="M33.665 88.605H26.735V95.535H33.665V88.605Z" fill="black"/>
<path d="M47.525 88.605H40.595V95.535H47.525V88.605Z" fill="black"/>
<path d="M82.175 88.605H75.245V95.535H82.175V88.605Z" fill="black"/>
<path d="M89.105 88.605H82.175V95.535H89.105V88.605Z" fill="black"/>
<path d="M96.035 88.605H89.105V95.535H96.035V88.605Z" fill="black"/>
<path d="M102.965 88.605H96.035V95.535H102.965V88.605Z" fill="black"/>
<path d="M144.545 88.605H137.615V95.535H144.545V88.605Z" fill="black"/>
<path d="M151.475 88.605H144.545V95.535H151.475V88.605Z" fill="black"/>
<path d="M158.405 88.605H151.475V95.535H158.405V88.605Z" fill="black"/>
<path d="M33.665 95.535H26.735V102.465H33.665V95.535Z" fill="black"/>
<path d="M40.595 95.535H33.665V102.465H40.595V95.535Z" fill="black"/>
<path d="M61.385 95.535H54.455V102.465H61.385V95.535Z" fill="black"/>
<path d="M68.315 95.535H61.385V102.465H68.315V95.535Z" fill="black"/>
<path d="M75.245 95.535H68.315V102.465H75.245V95.535Z" fill="black"/>
<path d="M89.105 95.535H82.175V102.465H89.105V95.535Z" fill="black"/>
<path d="M109.895 95.535H102.965V102.465H109.895V95.535Z" fill="black"/>
<path d="M123.755 95.535H116.825V102.465H123.755V95.535Z" fill="black"/>
<path d="M130.685 95.535H123.755V102.465H130.685V95.535Z" fill="black"/>
<path d="M144.545 95.535H137.615V102.465H144.545V95.535Z" fill="black"/>
<path d="M165.335 95.535H158.405V102.465H165.335V95.535Z" fill="black"/>
<path d="M179.195 95.535H172.265V102.465H179.195V95.535Z" fill="black"/>
<path d="M186.125 95.535H179.195V102.465H186.125V95.535Z" fill="black"/>
<path d="M26.735 102.465H19.805V109.395H26.735V102.465Z" fill="black"/>
<path d="M40.595 102.465H33.665V109.395H40.595V102.465Z" fill="black"/>
<path d="M47.525 102.465H40.595V109.395H47.525V102.465Z" fill="black"/>
<path d="M54.455 102.465H47.525V109.395H54.455L54.455 102.465Z" fill="black"/>
<path d="M75.245 102.465H68.315V109.395H75.245V102.465Z" fill="black"/>
<path d="M89.105 102.465H82.175V109.395H89.105V102.465Z" fill="black"/>
<path d="M102.965 102.465H96.035V109.395H102.965V102.465Z" fill="black"/>
<path d="M116.825 102.465H109.895V109.395H116.825L116.825 102.465Z" fill="black"/>
<path d="M130.685 102.465H123.755V109.395H130.685V102.465Z" fill="black"/>
<path d="M137.615 102.465H130.685V109.395H137.615V102.465Z" fill="black"/>
<path d="M144.545 102.465H137.615V109.395H144.545V102.465Z" fill="black"/>
<path d="M165.335 102.465H158.405V109.395H165.335V102.465Z" fill="black"/>
<path d="M172.265 102.465H165.335V109.395H172.265V102.465Z" fill="black"/>
<path d="M179.195 102.465H172.265V109.395H179.195V102.465Z" fill="black"/>
<path d="M26.735 109.395H19.805V116.325H26.735V109.395Z" fill="black"/>
<path d="M33.665 109.395H26.735V116.325H33.665V109.395Z" fill="black"/>
<path d="M54.455 109.395H47.525V116.325H54.455V109.395Z" fill="black"/>
<path d="M61.385 109.395H54.455V116.325H61.385V109.395Z" fill="black"/>
<path d="M75.245 109.395H68.315V116.325H75.245V109.395Z" fill="black"/>
<path d="M102.965 109.395H96.035V116.325H102.965V109.395Z" fill="black"/>
<path d="M109.895 109.395H102.965V116.325H109.895V109.395Z" fill="black"/>
<path d="M144.545 109.395H137.615V116.325H144.545V109.395Z" fill="black"/>
<path d="M151.475 109.395H144.545V116.325H151.475V109.395Z" fill="black"/>
<path d="M172.265 109.395H165.335V116.325H172.265V109.395Z" fill="black"/>
<path d="M186.125 109.395H179.195V116.325H186.125V109.395Z" fill="black"/>
<path d="M26.735 116.325H19.805V123.255H26.735V116.325Z" fill="black"/>
<path d="M40.595 116.325L33.665 116.325V123.255H40.595V116.325Z" fill="black"/>
<path d="M54.455 116.325H47.525V123.255H54.455V116.325Z" fill="black"/>
<path d="M89.105 116.325H82.175V123.255H89.105V116.325Z" fill="black"/>
<path d="M116.825 116.325L109.895 116.325V123.255H116.825V116.325Z" fill="black"/>
<path d="M137.615 116.325L130.685 116.325V123.255H137.615V116.325Z" fill="black"/>
<path d="M158.405 116.325L151.475 116.325V123.255H158.405V116.325Z" fill="black"/>
<path d="M172.265 116.325H165.335V123.255H172.265V116.325Z" fill="black"/>
<path d="M179.195 116.325H172.265V123.255H179.195V116.325Z" fill="black"/>
<path d="M19.805 123.255H12.875V130.185H19.805V123.255Z" fill="black"/>
<path d="M40.595 123.255H33.665V130.185H40.595V123.255Z" fill="black"/>
<path d="M47.525 123.255H40.595V130.185H47.525V123.255Z" fill="black"/>
<path d="M54.455 123.255H47.525V130.185H54.455V123.255Z" fill="black"/>
<path d="M61.385 123.255H54.455V130.185H61.385V123.255Z" fill="black"/>
<path d="M68.315 123.255H61.385V130.185H68.315V123.255Z" fill="black"/>
<path d="M82.175 123.255H75.245V130.185H82.175V123.255Z" fill="black"/>
<path d="M96.035 123.255H89.105V130.185H96.035V123.255Z" fill="black"/>
<path d="M123.755 123.255H116.825L116.825 130.185H123.755V123.255Z" fill="black"/>
<path d="M130.685 123.255H123.755V130.185H130.685V123.255Z" fill="black"/>
<path d="M137.615 123.255H130.685V130.185H137.615V123.255Z" fill="black"/>
<path d="M144.545 123.255H137.615V130.185H144.545V123.255Z" fill="black"/>
<path d="M151.475 123.255H144.545V130.185H151.475V123.255Z" fill="black"/>
<path d="M158.405 123.255H151.475V130.185H158.405V123.255Z" fill="black"/>
<path d="M172.265 123.255H165.335V130.185H172.265V123.255Z" fill="black"/>
<path d="M179.195 123.255H172.265V130.185H179.195V123.255Z" fill="black"/>
<path d="M102.965 130.185H96.035V137.115H102.965V130.185Z" fill="black"/>
<path d="M116.825 130.185H109.895V137.115H116.825L116.825 130.185Z" fill="black"/>
<path d="M123.755 130.185H116.825L116.825 137.115H123.755V130.185Z" fill="black"/>
<path d="M130.685 130.185H123.755V137.115H130.685V130.185Z" fill="black"/>
<path d="M158.405 130.185H151.475V137.115H158.405V130.185Z" fill="black"/>
<path d="M165.335 130.185H158.405V137.115H165.335V130.185Z" fill="black"/>
<path d="M186.125 130.185H179.195V137.115H186.125V130.185Z" fill="black"/>
<path d="M19.805 137.115H12.875V144.045H19.805V137.115Z" fill="black"/>
<path d="M26.735 137.115H19.805V144.045H26.735V137.115Z" fill="black"/>
<path d="M33.665 137.115H26.735V144.045H33.665V137.115Z" fill="black"/>
<path d="M40.595 137.115H33.665V144.045H40.595V137.115Z" fill="black"/>
<path d="M47.525 137.115H40.595V144.045H47.525V137.115Z" fill="black"/>
<path d="M54.455 137.115H47.525V144.045H54.455V137.115Z" fill="black"/>
<path d="M61.385 137.115H54.455V144.045H61.385V137.115Z" fill="black"/>
<path d="M75.245 137.115H68.315V144.045H75.245V137.115Z" fill="black"/>
<path d="M89.105 137.115H82.175V144.045H89.105V137.115Z" fill="black"/>
<path d="M102.965 137.115H96.035V144.045H102.965V137.115Z" fill="black"/>
<path d="M116.825 137.115H109.895V144.045H116.825V137.115Z" fill="black"/>
<path d="M123.755 137.115H116.825V144.045H123.755V137.115Z" fill="black"/>
<path d="M130.685 137.115H123.755V144.045H130.685V137.115Z" fill="black"/>
<path d="M144.545 137.115H137.615V144.045H144.545V137.115Z" fill="black"/>
<path d="M158.405 137.115H151.475V144.045H158.405V137.115Z" fill="black"/>
<path d="M165.335 137.115H158.405V144.045H165.335V137.115Z" fill="black"/>
<path d="M179.195 137.115H172.265V144.045H179.195V137.115Z" fill="black"/>
<path d="M19.805 144.045H12.875V150.975H19.805V144.045Z" fill="black"/>
<path d="M61.385 144.045H54.455L54.455 150.975H61.385V144.045Z" fill="black"/>
<path d="M75.245 144.045H68.315V150.975H75.245V144.045Z" fill="black"/>
<path d="M82.175 144.045H75.245V150.975H82.175V144.045Z" fill="black"/>
<path d="M89.105 144.045H82.175V150.975H89.105V144.045Z" fill="black"/>
<path d="M109.895 144.045H102.965V150.975H109.895V144.045Z" fill="black"/>
<path d="M116.825 144.045H109.895V150.975H116.825V144.045Z" fill="black"/>
<path d="M123.755 144.045H116.825V150.975H123.755V144.045Z" fill="black"/>
<path d="M130.685 144.045H123.755V150.975H130.685V144.045Z" fill="black"/>
<path d="M158.405 144.045H151.475V150.975H158.405V144.045Z" fill="black"/>
<path d="M179.195 144.045H172.265V150.975H179.195V144.045Z" fill="black"/>
<path d="M186.125 144.045H179.195V150.975H186.125V144.045Z" fill="black"/>
<path d="M19.805 150.975H12.875V157.905H19.805V150.975Z" fill="black"/>
<path d="M33.665 150.975H26.735V157.905H33.665V150.975Z" fill="black"/>
<path d="M40.595 150.975H33.665V157.905H40.595V150.975Z" fill="black"/>
<path d="M47.525 150.975H40.595V157.905H47.525V150.975Z" fill="black"/>
<path d="M61.385 150.975H54.455V157.905H61.385V150.975Z" fill="black"/>
<path d="M75.245 150.975H68.315V157.905H75.245V150.975Z" fill="black"/>
<path d="M102.965 150.975H96.035V157.905H102.965V150.975Z" fill="black"/>
<path d="M116.825 150.975H109.895V157.905H116.825V150.975Z" fill="black"/>
<path d="M123.755 150.975H116.825V157.905H123.755V150.975Z" fill="black"/>
<path d="M130.685 150.975H123.755V157.905H130.685V150.975Z" fill="black"/>
<path d="M137.615 150.975H130.685V157.905H137.615V150.975Z" fill="black"/>
<path d="M144.545 150.975H137.615V157.905H144.545V150.975Z" fill="black"/>
<path d="M151.475 150.975H144.545V157.905H151.475V150.975Z" fill="black"/>
<path d="M158.405 150.975H151.475V157.905H158.405V150.975Z" fill="black"/>
<path d="M165.335 150.975H158.405V157.905H165.335V150.975Z" fill="black"/>
<path d="M179.195 150.975H172.265V157.905H179.195V150.975Z" fill="black"/>
<path d="M186.125 150.975H179.195V157.905H186.125V150.975Z" fill="black"/>
<path d="M19.805 157.905H12.875V164.835H19.805V157.905Z" fill="black"/>
<path d="M33.665 157.905H26.735V164.835H33.665V157.905Z" fill="black"/>
<path d="M40.595 157.905H33.665V164.835H40.595V157.905Z" fill="black"/>
<path d="M47.525 157.905H40.595V164.835H47.525V157.905Z" fill="black"/>
<path d="M61.385 157.905H54.455V164.835H61.385V157.905Z" fill="black"/>
<path d="M75.245 157.905H68.315V164.835H75.245V157.905Z" fill="black"/>
<path d="M89.105 157.905H82.175V164.835H89.105V157.905Z" fill="black"/>
<path d="M109.895 157.905H102.965V164.835H109.895V157.905Z" fill="black"/>
<path d="M116.825 157.905H109.895V164.835H116.825V157.905Z" fill="black"/>
<path d="M137.615 157.905H130.685V164.835H137.615V157.905Z" fill="black"/>
<path d="M151.475 157.905H144.545V164.835H151.475V157.905Z" fill="black"/>
<path d="M165.335 157.905H158.405V164.835H165.335V157.905Z" fill="black"/>
<path d="M172.265 157.905H165.335V164.835H172.265V157.905Z" fill="black"/>
<path d="M179.195 157.905H172.265V164.835H179.195V157.905Z" fill="black"/>
<path d="M186.125 157.905H179.195V164.835H186.125V157.905Z" fill="black"/>
<path d="M19.805 164.835H12.875V171.765H19.805V164.835Z" fill="black"/>
<path d="M33.665 164.835H26.735V171.765H33.665V164.835Z" fill="black"/>
<path d="M40.595 164.835H33.665V171.765H40.595V164.835Z" fill="black"/>
<path d="M47.525 164.835H40.595V171.765H47.525V164.835Z" fill="black"/>
<path d="M61.385 164.835H54.455V171.765H61.385V164.835Z" fill="black"/>
<path d="M75.245 164.835H68.315V171.765H75.245V164.835Z" fill="black"/>
<path d="M102.965 164.835H96.035V171.765H102.965V164.835Z" fill="black"/>
<path d="M130.685 164.835H123.755V171.765H130.685V164.835Z" fill="black"/>
<path d="M144.545 164.835H137.615V171.765H144.545V164.835Z" fill="black"/>
<path d="M158.405 164.835H151.475V171.765H158.405V164.835Z" fill="black"/>
<path d="M165.335 164.835H158.405V171.765H165.335V164.835Z" fill="black"/>
<path d="M172.265 164.835H165.335V171.765H172.265V164.835Z" fill="black"/>
<path d="M186.125 164.835H179.195V171.765H186.125V164.835Z" fill="black"/>
<path d="M19.805 171.765H12.875V178.695H19.805V171.765Z" fill="black"/>
<path d="M61.385 171.765H54.455V178.695H61.385V171.765Z" fill="black"/>
<path d="M82.175 171.765H75.245V178.695H82.175V171.765Z" fill="black"/>
<path d="M89.105 171.765H82.175V178.695H89.105V171.765Z" fill="black"/>
<path d="M102.965 171.765H96.035V178.695H102.965V171.765Z" fill="black"/>
<path d="M109.895 171.765H102.965V178.695H109.895V171.765Z" fill="black"/>
<path d="M116.825 171.765H109.895V178.695H116.825V171.765Z" fill="black"/>
<path d="M144.545 171.765H137.615V178.695H144.545V171.765Z" fill="black"/>
<path d="M158.405 171.765H151.475V178.695H158.405V171.765Z" fill="black"/>
<path d="M165.335 171.765H158.405V178.695H165.335V171.765Z" fill="black"/>
<path d="M186.125 171.765H179.195V178.695H186.125V171.765Z" fill="black"/>
<path d="M19.805 178.695H12.875V185.625H19.805V178.695Z" fill="black"/>
<path d="M26.735 178.695H19.805V185.625H26.735V178.695Z" fill="black"/>
<path d="M33.665 178.695H26.735V185.625H33.665V178.695Z" fill="black"/>
<path d="M40.595 178.695H33.665V185.625H40.595V178.695Z" fill="black"/>
<path d="M47.525 178.695H40.595V185.625H47.525V178.695Z" fill="black"/>
<path d="M54.455 178.695H47.525V185.625H54.455L54.455 178.695Z" fill="black"/>
<path d="M61.385 178.695H54.455L54.455 185.625H61.385V178.695Z" fill="black"/>
<path d="M89.105 178.695H82.175V185.625H89.105V178.695Z" fill="black"/>
<path d="M96.035 178.695H89.105V185.625H96.035V178.695Z" fill="black"/>
<path d="M102.965 178.695H96.035V185.625H102.965V178.695Z" fill="black"/>
<path d="M116.825 178.695H109.895V185.625H116.825V178.695Z" fill="black"/>
<path d="M123.755 178.695H116.825V185.625H123.755V178.695Z" fill="black"/>
<path d="M144.545 178.695H137.615V185.625H144.545V178.695Z" fill="black"/>
<path d="M158.405 178.695H151.475V185.625H158.405V178.695Z" fill="black"/>
<path d="M165.335 178.695H158.405V185.625H165.335V178.695Z" fill="black"/>
<path d="M172.265 178.695H165.335V185.625H172.265V178.695Z" fill="black"/>
<path d="M179.195 178.695H172.265V185.625H179.195V178.695Z" fill="black"/>
<path d="M186.125 178.695H179.195V185.625H186.125V178.695Z" fill="black"/>
</g>
<defs>
<clipPath id="clip0_609_404">
<rect width="198" height="198" fill="white" transform="translate(0.5)"/>
</clipPath>
</defs>
</svg>
